{
  "accessors": [
    {
      "bufferView": 2,
      "componentType": 5126,
      "count": 68,
      "max": [
        0.3799999952316284,
        18.407732009887695,
        7.659270286560059
      ],
      "min": [
        -0.3799999952316284,
        17.64773178100586,
        -7.788217544555664
      ],
      "type": "VEC3"
    },
    {
      "bufferView": 2,
      "byteOffset": 816,
      "componentType": 5126,
      "count": 68,
      "max": [
        1.0,
        1.0,
        1.0
      ],
      "min": [
        -1.0,
        -1.0,
        -1.0
      ],
      "type": "VEC3"
    },
    {
      "bufferView": 3,
      "componentType": 5126,
      "count": 68,
      "max": [
        1.0,
        1.0,
        8.733591130294371e-06,
        1.0
      ],
      "min": [
        -1.0,
        -1.0,
        -1.9857654478983022e-05,
        1.0
      ],
      "type": "VEC4"
    },
    {
      "bufferView": 1,
      "componentType": 5126,
      "count": 68,
      "max": [
        0.8550200462341309,
        0.3230958580970764
      ],
      "min": [
        0.7823857069015503,
        0.00390625
      ],
      "type": "VEC2"
    },
    {
      "bufferView": 0,
      "componentType": 5125,
      "count": 192,
      "type": "SCALAR"
    },
    {
      "bufferView": 2,
      "byteOffset": 1632,
      "componentType": 5126,
      "count": 332,
      "max": [
        7.142656326293945,
        18.84136199951172,
        7.142656326293945
      ],
      "min": [
        -7.142655849456787,
        9.5367431640625e-07,
        -7.142656326293945
      ],
      "type": "VEC3"
    },
    {
      "bufferView": 2,
      "byteOffset": 5616,
      "componentType": 5126,
      "count": 332,
      "max": [
        1.0,
        1.0,
        1.0
      ],
      "min": [
        -1.0,
        -1.0,
        -1.0
      ],
      "type": "VEC3"
    },
    {
      "bufferView": 3,
      "byteOffset": 1088,
      "componentType": 5126,
      "count": 332,
      "max": [
        1.0,
        1.0,
        0.9921441078186035,
        1.0
      ],
      "min": [
        -1.0,
        -1.0,
        -0.9978092312812805,
        1.0
      ],
      "type": "VEC4"
    },
    {
      "bufferView": 1,
      "byteOffset": 544,
      "componentType": 5126,
      "count": 332,
      "max": [
        0.9332438111305237,
        0.99609375
      ],
      "min": [
        0.00390625,
        0.00390625
      ],
      "type": "VEC2"
    },
    {
      "bufferView": 0,
      "byteOffset": 768,
      "componentType": 5125,
      "count": 936,
      "type": "SCALAR"
    },
    {
      "bufferView": 2,
      "byteOffset": 9600,
      "componentType": 5126,
      "count": 204,
      "max": [
        7.0223388671875,
        14.183595657348633,
        7.022338390350342
      ],
      "min": [
        -7.022339344024658,
        3.008455514907837,
        -7.022338390350342
      ],
      "type": "VEC3"
    },
    {
      "bufferView": 2,
      "byteOffset": 12048,
      "componentType": 5126,
      "count": 204,
      "max": [
        0.9787057638168335,
        0.9246698617935181,
        0.9787057042121887
      ],
      "min": [
        -0.9787057042121887,
        -0.924668550491333,
        -0.9787057638168335
      ],
      "type": "VEC3"
    },
    {
      "bufferView": 3,
      "byteOffset": 6400,
      "componentType": 5126,
      "count": 204,
      "max": [
        0.9275819659233093,
        0.3807777166366577,
        0.9247491955757141,
        1.0
      ],
      "min": [
        -0.9275825619697571,
        -0.997879683971405,
        -0.927261233329773,
        1.0
      ],
      "type": "VEC4"
    },
    {
      "bufferView": 1,
      "byteOffset": 3200,
      "componentType": 5126,
      "count": 204,
      "max": [
        0.9847769737243652,
        0.9235508441925049
      ],
      "min": [
        0.8683919906616211,
        0.00390625
      ],
      "type": "VEC2"
    },
    {
      "bufferView": 0,
      "byteOffset": 4512,
      "componentType": 5125,
      "count": 576,
      "type": "SCALAR"
    }
  ],
  "asset": {
    "extras": {
      "author": "GrayLynx (https://sketchfab.com/Nakil)",
      "license": "CC-BY-4.0 (http://creativecommons.org/licenses/by/4.0/)",
      "source": "https://sketchfab.com/3d-models/wood-bucket-82f8ae7b6df84d109e88f27fd1ec03e7",
      "title": "Wood Bucket"
    },
    "generator": "Sketchfab-12.65.0",
    "version": "2.0"
  },
  "bufferViews": [
    {
      "buffer": 0,
      "byteLength": 6816,
      "name": "floatBufferViews",
      "target": 34963
    },
    {
      "buffer": 0,
      "byteLength": 4832,
      "byteOffset": 6816,
      "byteStride": 8,
      "name": "floatBufferViews",
      "target": 34962
    },
    {
      "buffer": 0,
      "byteLength": 14496,
      "byteOffset": 11648,
      "byteStride": 12,
      "name": "floatBufferViews",
      "target": 34962
    },
    {
      "buffer": 0,
      "byteLength": 9664,
      "byteOffset": 26144,
      "byteStride": 16,
      "name": "floatBufferViews",
      "target": 34962
    }
  ],
  "buffers": [
    {
      "byteLength": 35808,
      "uri": "scene.bin"
    }
  ],
  "images": [
    {
      "uri": "textures/lambert2_baseColor.png"
    },
    {
      "uri": "textures/lambert2_metallicRoughness.png"
    },
    {
      "uri": "textures/lambert2_normal.png"
    }
  ],
  "materials": [
    {
      "doubleSided": true,
      "name": "lambert2",
      "normalTexture": {
        "index": 2
      },
      "occlusionTexture": {
        "index": 1
      },
      "pbrMetallicRoughness": {
        "baseColorTexture": {
          "index": 0
        },
        "metallicRoughnessTexture": {
          "index": 1
        }
      }
    }
  ],
  "meshes": [
    {
      "name": "Handle_low_lambert2_0",
      "primitives": [
        {
          "attributes": {
            "NORMAL": 1,
            "POSITION": 0,
            "TANGENT": 2,
            "TEXCOORD_0": 3
          },
          "indices": 4,
          "material": 0,
          "mode": 4
        }
      ]
    },
    {
      "name": "body_low_lambert2_0",
      "primitives": [
        {
          "attributes": {
            "NORMAL": 6,
            "POSITION": 5,
            "TANGENT": 7,
            "TEXCOORD_0": 8
          },
          "indices": 9,
          "material": 0,
          "mode": 4
        }
      ]
    },
    {
      "name": "Line_low_lambert2_0",
      "primitives": [
        {
          "attributes": {
            "NORMAL": 11,
            "POSITION": 10,
            "TANGENT": 12,
            "TEXCOORD_0": 13
          },
          "indices": 14,
          "material": 0,
          "mode": 4
        }
      ]
    }
  ],
  "nodes": [
    {
      "children": [
        1
      ],
      "matrix": [
        1.0,
        0.0,
        0.0,
        0.0,
        0.0,
        2.220446049250313e-16,
        -1.0,
        0.0,
        0.0,
        1.0,
        2.220446049250313e-16,
        0.0,
        0.0,
        0.0,
        0.0,
        1.0
      ],
      "name": "Sketchfab_model"
    },
    {
      "children": [
        2
      ],
      "matrix": [
        1.0,
        0.0,
        0.0,
        0.0,
        0.0,
        0.0,
        1.0,
        0.0,
        0.0,
        -1.0,
        0.0,
        0.0,
        0.0,
        0.0,
        0.0,
        1.0
      ],
      "name": "e0e53b296b744e569bf4d130545fd0c7.fbx"
    },
    {
      "children": [
        3,
        5,
        7
      ],
      "name": "RootNode"
    },
    {
      "children": [
        4
      ],
      "name": "Handle_low"
    },
    {
      "mesh": 0,
      "name": "Handle_low_lambert2_0"
    },
    {
      "children": [
        6
      ],
      "name": "body_low"
    },
    {
      "mesh": 1,
      "name": "body_low_lambert2_0"
    },
    {
      "children": [
        8
      ],
      "name": "Line_low"
    },
    {
      "mesh": 2,
      "name": "Line_low_lambert2_0"
    }
  ],
  "samplers": [
    {
      "magFilter": 9729,
      "minFilter": 9987,
      "wrapS": 10497,
      "wrapT": 10497
    }
  ],
  "scene": 0,
  "scenes": [
    {
      "name": "Sketchfab_Scene",
      "nodes": [
        0
      ]
    }
  ],
  "textures": [
    {
      "sampler": 0,
      "source": 0
    },
    {
      "sampler": 0,
      "source": 1
    },
    {
      "sampler": 0,
      "source": 2
    }
  ]
}
