{
  "accessors": [
    {
      "bufferView": 2,
      "componentType": 5126,
      "count": 585,
      "max": [
        -560.013427734375,
        69.9708251953125,
        38.89703369140625
      ],
      "min": [
        -894.6151123046875,
        10.13348388671875,
        -1063.970458984375
      ],
      "type": "VEC3"
    },
    {
      "bufferView": 2,
      "byteOffset": 7020,
      "componentType": 5126,
      "count": 585,
      "max": [
        0.9951980113983154,
        0.9987940192222595,
        0.9959084987640381
      ],
      "min": [
        -0.9951989054679871,
        -0.9987941384315491,
        -0.9959086179733276
      ],
      "type": "VEC3"
    },
    {
      "bufferView": 3,
      "componentType": 5126,
      "count": 585,
      "max": [
        0.9951984286308289,
        0.9988299012184143,
        0.9978864789009094,
        1.0
      ],
      "min": [
        -0.9952029585838318,
        -0.9988318681716919,
        -0.9981902837753296,
        1.0
      ],
      "type": "VEC4"
    },
    {
      "bufferView": 1,
      "componentType": 5126,
      "count": 585,
      "max": [
        0.9950839877128601,
        0.9990230202674866
      ],
      "min": [
        0.0009769999887794256,
        0.0009769999887794256
      ],
      "type": "VEC2"
    },
    {
      "bufferView": 0,
      "componentType": 5125,
      "count": 948,
      "type": "SCALAR"
    },
    {
      "bufferView": 2,
      "byteOffset": 14040,
      "componentType": 5126,
      "count": 584,
      "max": [
        -98.54721069335938,
        953.7938232421875,
        392.9577331542969
      ],
      "min": [
        -719.1151123046875,
        19.73052978515625,
        5.6063690185546875
      ],
      "type": "VEC3"
    },
    {
      "bufferView": 2,
      "byteOffset": 21048,
      "componentType": 5126,
      "count": 584,
      "max": [
        0.9174573421478271,
        0.8535048365592957,
        0.9626221060752869
      ],
      "min": [
        -0.8216541409492493,
        -0.8534971475601196,
        -0.9895341396331787
      ],
      "type": "VEC3"
    },
    {
      "bufferView": 3,
      "byteOffset": 9360,
      "componentType": 5126,
      "count": 584,
      "max": [
        0.8218832015991211,
        0.8950569033622742,
        0.9626330733299255,
        1.0
      ],
      "min": [
        -0.8285315036773682,
        -0.9531153440475464,
        -0.9626668691635132,
        1.0
      ],
      "type": "VEC4"
    },
    {
      "bufferView": 1,
      "byteOffset": 4680,
      "componentType": 5126,
      "count": 584,
      "max": [
        0.9950839877128601,
        0.9990230202674866
      ],
      "min": [
        0.0009769999887794256,
        0.0009769999887794256
      ],
      "type": "VEC2"
    },
    {
      "bufferView": 0,
      "byteOffset": 3792,
      "componentType": 5125,
      "count": 948,
      "type": "SCALAR"
    },
    {
      "bufferView": 2,
      "byteOffset": 28056,
      "componentType": 5126,
      "count": 1136,
      "max": [
        -151.6505126953125,
        1151.3486328125,
        574.485595703125
      ],
      "min": [
        -287.51495361328125,
        65.21856689453125,
        -492.4127502441406
      ],
      "type": "VEC3"
    },
    {
      "bufferView": 2,
      "byteOffset": 41688,
      "componentType": 5126,
      "count": 1136,
      "max": [
        0.9999996423721313,
        1.0,
        0.9999996423721313
      ],
      "min": [
        -0.9999996423721313,
        -1.0,
        -0.9999996423721313
      ],
      "type": "VEC3"
    },
    {
      "bufferView": 3,
      "byteOffset": 18704,
      "componentType": 5126,
      "count": 1136,
      "max": [
        0.9999998211860657,
        1.0,
        0.9999997019767761,
        1.0
      ],
      "min": [
        -0.9999998211860657,
        -1.0,
        -0.9999997019767761,
        1.0
      ],
      "type": "VEC4"
    },
    {
      "bufferView": 1,
      "byteOffset": 9352,
      "componentType": 5126,
      "count": 1136,
      "max": [
        0.9991210103034973,
        0.9761430025100708
      ],
      "min": [
        0.0008789999992586672,
        0.0008789999992586672
      ],
      "type": "VEC2"
    },
    {
      "bufferView": 0,
      "byteOffset": 7584,
      "componentType": 5125,
      "count": 1884,
      "type": "SCALAR"
    },
    {
      "bufferView": 2,
      "byteOffset": 55320,
      "componentType": 5126,
      "count": 803,
      "max": [
        148.48025512695313,
        1173.507568359375,
        625.7379150390625
      ],
      "min": [
        -193.570556640625,
        16.37451171875,
        -565.96728515625
      ],
      "type": "VEC3"
    },
    {
      "bufferView": 2,
      "byteOffset": 64956,
      "componentType": 5126,
      "count": 803,
      "max": [
        1.0,
        1.0,
        1.0
      ],
      "min": [
        -1.0,
        -1.0,
        -1.0
      ],
      "type": "VEC3"
    },
    {
      "bufferView": 3,
      "byteOffset": 36880,
      "componentType": 5126,
      "count": 803,
      "max": [
        1.0,
        1.0,
        1.0,
        1.0
      ],
      "min": [
        -1.0,
        -1.0,
        -1.0,
        1.0
      ],
      "type": "VEC4"
    },
    {
      "bufferView": 1,
      "byteOffset": 18440,
      "componentType": 5126,
      "count": 803,
      "max": [
        0.9990230202674866,
        0.9990230202674866
      ],
      "min": [
        0.0009769999887794256,
        0.0009769999887794256
      ],
      "type": "VEC2"
    },
    {
      "bufferView": 0,
      "byteOffset": 15120,
      "componentType": 5125,
      "count": 1392,
      "type": "SCALAR"
    }
  ],
  "asset": {
    "extras": {
      "author": "Haider Al_Asady (https://sketchfab.com/haiderhabbeb313)",
      "license": "CC-BY-4.0 (http://creativecommons.org/licenses/by/4.0/)",
      "source": "https://sketchfab.com/3d-models/millitary-locker-cbe0943ab7dd4a2d907f6e77f4bee008",
      "title": "millitary locker"
    },
    "generator": "Sketchfab-12.74.0",
    "version": "2.0"
  },
  "bufferViews": [
    {
      "buffer": 0,
      "byteLength": 20688,
      "name": "floatBufferViews",
      "target": 34963
    },
    {
      "buffer": 0,
      "byteLength": 24864,
      "byteOffset": 20688,
      "byteStride": 8,
      "name": "floatBufferViews",
      "target": 34962
    },
    {
      "buffer": 0,
      "byteLength": 74592,
      "byteOffset": 45552,
      "byteStride": 12,
      "name": "floatBufferViews",
      "target": 34962
    },
    {
      "buffer": 0,
      "byteLength": 49728,
      "byteOffset": 120144,
      "byteStride": 16,
      "name": "floatBufferViews",
      "target": 34962
    }
  ],
  "buffers": [
    {
      "byteLength": 169872,
      "uri": "scene.bin"
    }
  ],
  "images": [
    {
      "uri": "textures/Material_001_baseColor.jpeg"
    },
    {
      "uri": "textures/Material_001_metallicRoughness.png"
    },
    {
      "uri": "textures/Material_001_normal.png"
    },
    {
      "uri": "textures/Material_002_baseColor.jpeg"
    },
    {
      "uri": "textures/Material_002_metallicRoughness.png"
    },
    {
      "uri": "textures/Material_002_normal.png"
    },
    {
      "uri": "textures/Material_003_baseColor.jpeg"
    },
    {
      "uri": "textures/Material_003_metallicRoughness.png"
    },
    {
      "uri": "textures/Material_003_normal.png"
    },
    {
      "uri": "textures/Material_005_baseColor.jpeg"
    },
    {
      "uri": "textures/Material_005_metallicRoughness.png"
    },
    {
      "uri": "textures/Material_005_normal.png"
    }
  ],
  "materials": [
    {
      "doubleSided": true,
      "name": "Material_001",
      "normalTexture": {
        "index": 2
      },
      "occlusionTexture": {
        "index": 1
      },
      "pbrMetallicRoughness": {
        "baseColorTexture": {
          "index": 0
        },
        "metallicRoughnessTexture": {
          "index": 1
        }
      }
    },
    {
      "doubleSided": true,
      "name": "Material_002",
      "normalTexture": {
        "index": 5
      },
      "occlusionTexture": {
        "index": 4
      },
      "pbrMetallicRoughness": {
        "baseColorTexture": {
          "index": 3
        },
        "metallicRoughnessTexture": {
          "index": 4
        }
      }
    },
    {
      "doubleSided": true,
      "name": "Material_003",
      "normalTexture": {
        "index": 8
      },
      "occlusionTexture": {
        "index": 7
      },
      "pbrMetallicRoughness": {
        "baseColorTexture": {
          "index": 6
        },
        "metallicRoughnessTexture": {
          "index": 7
        }
      }
    },
    {
      "doubleSided": true,
      "name": "Material_005",
      "normalTexture": {
        "index": 11
      },
      "occlusionTexture": {
        "index": 10
      },
      "pbrMetallicRoughness": {
        "baseColorTexture": {
          "index": 9
        },
        "metallicRoughnessTexture": {
          "index": 10
        }
      }
    }
  ],
  "meshes": [
    {
      "name": "defaultMaterial",
      "primitives": [
        {
          "attributes": {
            "NORMAL": 1,
            "POSITION": 0,
            "TANGENT": 2,
            "TEXCOORD_0": 3
          },
          "indices": 4,
          "material": 3,
          "mode": 4
        }
      ]
    },
    {
      "name": "defaultMaterial",
      "primitives": [
        {
          "attributes": {
            "NORMAL": 6,
            "POSITION": 5,
            "TANGENT": 7,
            "TEXCOORD_0": 8
          },
          "indices": 9,
          "material": 2,
          "mode": 4
        }
      ]
    },
    {
      "name": "defaultMaterial",
      "primitives": [
        {
          "attributes": {
            "NORMAL": 11,
            "POSITION": 10,
            "TANGENT": 12,
            "TEXCOORD_0": 13
          },
          "indices": 14,
          "material": 1,
          "mode": 4
        }
      ]
    },
    {
      "name": "defaultMaterial",
      "primitives": [
        {
          "attributes": {
            "NORMAL": 16,
            "POSITION": 15,
            "TANGENT": 17,
            "TEXCOORD_0": 18
          },
          "indices": 19,
          "material": 0,
          "mode": 4
        }
      ]
    }
  ],
  "nodes": [
    {
      "children": [
        1
      ],
      "matrix": [
        1.0,
        0.0,
        0.0,
        0.0,
        0.0,
        2.220446049250313e-16,
        -1.0,
        0.0,
        0.0,
        1.0,
        2.220446049250313e-16,
        0.0,
        0.0,
        0.0,
        0.0,
        1.0
      ],
      "name": "Sketchfab_model"
    },
    {
      "children": [
        2,
        4,
        6,
        8
      ],
      "matrix": [
        1.0,
        0.0,
        0.0,
        0.0,
        0.0,
        -4.371139006309477e-08,
        0.999999999999999,
        0.0,
        0.0,
        -0.999999999999999,
        -4.371139006309477e-08,
        0.0,
        0.0,
        0.0,
        0.0,
        1.0
      ],
      "name": "Collada visual scene group"
    },
    {
      "children": [
        3
      ],
      "name": "Cube.003"
    },
    {
      "mesh": 0,
      "name": "defaultMaterial"
    },
    {
      "children": [
        5
      ],
      "name": "Cube.004"
    },
    {
      "mesh": 1,
      "name": "defaultMaterial"
    },
    {
      "children": [
        7
      ],
      "name": "Cube.002"
    },
    {
      "mesh": 2,
      "name": "defaultMaterial"
    },
    {
      "children": [
        9
      ],
      "name": "Cube.001"
    },
    {
      "mesh": 3,
      "name": "defaultMaterial"
    }
  ],
  "samplers": [
    {
      "magFilter": 9729,
      "minFilter": 9987,
      "wrapS": 10497,
      "wrapT": 10497
    }
  ],
  "scene": 0,
  "scenes": [
    {
      "name": "Sketchfab_Scene",
      "nodes": [
        0
      ]
    }
  ],
  "textures": [
    {
      "sampler": 0,
      "source": 0
    },
    {
      "sampler": 0,
      "source": 1
    },
    {
      "sampler": 0,
      "source": 2
    },
    {
      "sampler": 0,
      "source": 3
    },
    {
      "sampler": 0,
      "source": 4
    },
    {
      "sampler": 0,
      "source": 5
    },
    {
      "sampler": 0,
      "source": 6
    },
    {
      "sampler": 0,
      "source": 7
    },
    {
      "sampler": 0,
      "source": 8
    },
    {
      "sampler": 0,
      "source": 9
    },
    {
      "sampler": 0,
      "source": 10
    },
    {
      "sampler": 0,
      "source": 11
    }
  ]
}
