{
	"asset":{
		"generator":"Khronos glTF Blender I/O v4.2.57",
		"version":"2.0"
	},
	"scene":0,
	"scenes":[
		{
			"name":"Scene",
			"nodes":[
				0,
				1,
				2,
				3
			]
		}
	],
	"nodes":[
		{
			"mesh":0,
			"name":"Door",
			"rotation":[
				0,
				0.7071055173873901,
				-0.7071080803871155,
				3.090856637300021e-08
			],
			"scale":[
				0.8302668333053589,
				0.8302668333053589,
				0.8302668333053589
			],
			"translation":[
				-1.005940318107605,
				1.8437676429748535,
				5.40998649597168
			]
		},
		{
			"mesh":1,
			"name":"Cell_irons",
			"rotation":[
				2.5822007501119515e-06,
				-0.7071055173873901,
				0.7071080803871155,
				2.5821914277912583e-06
			],
			"scale":[
				0.8302668333053589,
				0.8302668333053589,
				0.8302668333053589
			],
			"translation":[
				-0.06244330108165741,
				2.5600247383117676,
				5.407881259918213
			]
		},
		{
			"mesh":2,
			"name":"Window",
			"rotation":[
				2.5822007501119515e-06,
				-0.7071055173873901,
				0.7071080803871155,
				2.5821914277912583e-06
			],
			"scale":[
				0.8302668333053589,
				0.8302668333053589,
				0.8302668333053589
			],
			"translation":[
				-0.05850522592663765,
				3.9831466674804688,
				-4.665401458740234
			]
		},
		{
			"mesh":3,
			"name":"Concrete_cell",
			"rotation":[
				2.5822007501119515e-06,
				-0.7071055173873901,
				0.7071080803871155,
				2.5821914277912583e-06
			],
			"scale":[
				0.8302668333053589,
				0.8302668333053589,
				0.8302668333053589
			],
			"translation":[
				-0.04953921586275101,
				2.8463633060455322,
				-0.17150959372520447
			]
		}
	],
	"materials":[
		{
			"doubleSided":true,
			"name":"CellIron",
			"pbrMetallicRoughness":{
				"baseColorFactor":[
					0.800000011920929,
					0.800000011920929,
					0.800000011920929,
					1
				],
				"metallicFactor":0,
				"roughnessFactor":0.5
			}
		},
		{
			"doubleSided":true,
			"name":"Wall",
			"pbrMetallicRoughness":{
				"baseColorFactor":[
					0.800000011920929,
					0.800000011920929,
					0.800000011920929,
					1
				],
				"metallicFactor":0,
				"roughnessFactor":0.5
			}
		},
		{
			"doubleSided":true,
			"name":"Ground",
			"pbrMetallicRoughness":{
				"baseColorFactor":[
					0.800000011920929,
					0.800000011920929,
					0.800000011920929,
					1
				],
				"metallicFactor":0,
				"roughnessFactor":0.5
			}
		},
		{
			"doubleSided":true,
			"name":"Ceiling",
			"pbrMetallicRoughness":{
				"baseColorFactor":[
					0.800000011920929,
					0.800000011920929,
					0.800000011920929,
					1
				],
				"metallicFactor":0,
				"roughnessFactor":0.5
			}
		}
	],
	"meshes":[
		{
			"name":"Plane.007",
			"primitives":[
				{
					"attributes":{
						"POSITION":0,
						"NORMAL":1,
						"TEXCOORD_0":2
					},
					"indices":3,
					"material":0
				}
			]
		},
		{
			"name":"Plane.004",
			"primitives":[
				{
					"attributes":{
						"POSITION":4,
						"NORMAL":5,
						"TEXCOORD_0":6
					},
					"indices":7,
					"material":0
				}
			]
		},
		{
			"name":"Plane.002",
			"primitives":[
				{
					"attributes":{
						"POSITION":8,
						"NORMAL":9,
						"TEXCOORD_0":10
					},
					"indices":11,
					"material":0
				}
			]
		},
		{
			"name":"Plane",
			"primitives":[
				{
					"attributes":{
						"POSITION":12,
						"NORMAL":13,
						"TEXCOORD_0":14
					},
					"indices":15,
					"material":1
				},
				{
					"attributes":{
						"POSITION":16,
						"NORMAL":17,
						"TEXCOORD_0":18
					},
					"indices":19,
					"material":2
				},
				{
					"attributes":{
						"POSITION":20,
						"NORMAL":21,
						"TEXCOORD_0":22
					},
					"indices":23,
					"material":3
				}
			]
		}
	],
	"accessors":[
		{
			"bufferView":0,
			"componentType":5126,
			"count":736,
			"max":[
				0.12083432078361511,
				0.2342483103275299,
				2.2576327323913574
			],
			"min":[
				-2.2939727306365967,
				-0.23522037267684937,
				-2.028719186782837
			],
			"type":"VEC3"
		},
		{
			"bufferView":1,
			"componentType":5126,
			"count":736,
			"type":"VEC3"
		},
		{
			"bufferView":2,
			"componentType":5126,
			"count":736,
			"type":"VEC2"
		},
		{
			"bufferView":3,
			"componentType":5123,
			"count":1344,
			"type":"SCALAR"
		},
		{
			"bufferView":4,
			"componentType":5126,
			"count":752,
			"max":[
				3.605762004852295,
				0.13853606581687927,
				3.1203160285949707
			],
			"min":[
				-3.6269354820251465,
				-0.13853749632835388,
				-2.769113063812256
			],
			"type":"VEC3"
		},
		{
			"bufferView":5,
			"componentType":5126,
			"count":752,
			"type":"VEC3"
		},
		{
			"bufferView":6,
			"componentType":5126,
			"count":752,
			"type":"VEC2"
		},
		{
			"bufferView":7,
			"componentType":5123,
			"count":1464,
			"type":"SCALAR"
		},
		{
			"bufferView":8,
			"componentType":5126,
			"count":176,
			"max":[
				2.006645917892456,
				0.16123056411743164,
				0.695564329624176
			],
			"min":[
				-1.9821653366088867,
				7.2479248046875e-05,
				-0.6979866623878479
			],
			"type":"VEC3"
		},
		{
			"bufferView":9,
			"componentType":5126,
			"count":176,
			"type":"VEC3"
		},
		{
			"bufferView":10,
			"componentType":5126,
			"count":176,
			"type":"VEC2"
		},
		{
			"bufferView":11,
			"componentType":5123,
			"count":324,
			"type":"SCALAR"
		},
		{
			"bufferView":12,
			"componentType":5126,
			"count":72,
			"max":[
				3.996964931488037,
				5.681307315826416,
				3.6808571815490723
			],
			"min":[
				-3.9969558715820312,
				-6.903412818908691,
				-2.731152296066284
			],
			"type":"VEC3"
		},
		{
			"bufferView":13,
			"componentType":5126,
			"count":72,
			"type":"VEC3"
		},
		{
			"bufferView":14,
			"componentType":5126,
			"count":72,
			"type":"VEC2"
		},
		{
			"bufferView":15,
			"componentType":5123,
			"count":162,
			"type":"SCALAR"
		},
		{
			"bufferView":16,
			"componentType":5126,
			"count":4,
			"max":[
				3.585991859436035,
				5.2703094482421875,
				3.463207721710205
			],
			"min":[
				-3.585979700088501,
				-6.903409004211426,
				3.4631636142730713
			],
			"type":"VEC3"
		},
		{
			"bufferView":17,
			"componentType":5126,
			"count":4,
			"type":"VEC3"
		},
		{
			"bufferView":18,
			"componentType":5126,
			"count":4,
			"type":"VEC2"
		},
		{
			"bufferView":19,
			"componentType":5123,
			"count":6,
			"type":"SCALAR"
		},
		{
			"bufferView":20,
			"componentType":5126,
			"count":12,
			"max":[
				3.996964931488037,
				5.681307315826416,
				-2.3965373039245605
			],
			"min":[
				-3.9969558715820312,
				-6.9033894538879395,
				-2.731152296066284
			],
			"type":"VEC3"
		},
		{
			"bufferView":21,
			"componentType":5126,
			"count":12,
			"type":"VEC3"
		},
		{
			"bufferView":22,
			"componentType":5126,
			"count":12,
			"type":"VEC2"
		},
		{
			"bufferView":23,
			"componentType":5123,
			"count":30,
			"type":"SCALAR"
		}
	],
	"bufferViews":[
		{
			"buffer":0,
			"byteLength":8832,
			"byteOffset":0,
			"target":34962
		},
		{
			"buffer":0,
			"byteLength":8832,
			"byteOffset":8832,
			"target":34962
		},
		{
			"buffer":0,
			"byteLength":5888,
			"byteOffset":17664,
			"target":34962
		},
		{
			"buffer":0,
			"byteLength":2688,
			"byteOffset":23552,
			"target":34963
		},
		{
			"buffer":0,
			"byteLength":9024,
			"byteOffset":26240,
			"target":34962
		},
		{
			"buffer":0,
			"byteLength":9024,
			"byteOffset":35264,
			"target":34962
		},
		{
			"buffer":0,
			"byteLength":6016,
			"byteOffset":44288,
			"target":34962
		},
		{
			"buffer":0,
			"byteLength":2928,
			"byteOffset":50304,
			"target":34963
		},
		{
			"buffer":0,
			"byteLength":2112,
			"byteOffset":53232,
			"target":34962
		},
		{
			"buffer":0,
			"byteLength":2112,
			"byteOffset":55344,
			"target":34962
		},
		{
			"buffer":0,
			"byteLength":1408,
			"byteOffset":57456,
			"target":34962
		},
		{
			"buffer":0,
			"byteLength":648,
			"byteOffset":58864,
			"target":34963
		},
		{
			"buffer":0,
			"byteLength":864,
			"byteOffset":59512,
			"target":34962
		},
		{
			"buffer":0,
			"byteLength":864,
			"byteOffset":60376,
			"target":34962
		},
		{
			"buffer":0,
			"byteLength":576,
			"byteOffset":61240,
			"target":34962
		},
		{
			"buffer":0,
			"byteLength":324,
			"byteOffset":61816,
			"target":34963
		},
		{
			"buffer":0,
			"byteLength":48,
			"byteOffset":62140,
			"target":34962
		},
		{
			"buffer":0,
			"byteLength":48,
			"byteOffset":62188,
			"target":34962
		},
		{
			"buffer":0,
			"byteLength":32,
			"byteOffset":62236,
			"target":34962
		},
		{
			"buffer":0,
			"byteLength":12,
			"byteOffset":62268,
			"target":34963
		},
		{
			"buffer":0,
			"byteLength":144,
			"byteOffset":62280,
			"target":34962
		},
		{
			"buffer":0,
			"byteLength":144,
			"byteOffset":62424,
			"target":34962
		},
		{
			"buffer":0,
			"byteLength":96,
			"byteOffset":62568,
			"target":34962
		},
		{
			"buffer":0,
			"byteLength":60,
			"byteOffset":62664,
			"target":34963
		}
	],
	"buffers":[
		{
			"byteLength":62724,
			"uri":"Cell.bin"
		}
	]
}
