{
  "accessors": [
    {
      "bufferView": 2,
      "componentType": 5126,
      "count": 38363,
      "max": [
        0.13901999592781067,
        0.12725800275802612,
        0.23255422711372375
      ],
      "min": [
        -0.1311996728181839,
        -0.12843894958496094,
        0.0035910606384277344
      ],
      "type": "VEC3"
    },
    {
      "bufferView": 2,
      "byteOffset": 460356,
      "componentType": 5126,
      "count": 38363,
      "max": [
        0.999980092048645,
        0.9999959468841553,
        0.9999995231628418
      ],
      "min": [
        -0.9999699592590332,
        -0.9999732375144958,
        -0.9999952912330627
      ],
      "type": "VEC3"
    },
    {
      "bufferView": 3,
      "componentType": 5126,
      "count": 38363,
      "max": [
        1.0,
        0.9877889752388,
        1.0,
        1.0
      ],
      "min": [
        -1.0,
        -0.9888846278190613,
        -1.0,
        -1.0
      ],
      "type": "VEC4"
    },
    {
      "bufferView": 1,
      "componentType": 5126,
      "count": 38363,
      "max": [
        0.9998767971992493,
        0.9979246854782104
      ],
      "min": [
        0.0001220703125,
        0.00012322200927883387
      ],
      "type": "VEC2"
    },
    {
      "bufferView": 0,
      "componentType": 5125,
      "count": 149988,
      "type": "SCALAR"
    }
  ],
  "asset": {
    "extras": {
      "author": "Historiska (https://sketchfab.com/historiska)",
      "license": "CC-BY-4.0 (http://creativecommons.org/licenses/by/4.0/)",
      "source": "https://sketchfab.com/3d-models/etruscan-wine-bucket-d3f9d1af40de4c8d8d5fe6faba06d615",
      "title": "Etruscan Wine Bucket"
    },
    "generator": "Sketchfab-12.60.0",
    "version": "2.0"
  },
  "bufferViews": [
    {
      "buffer": 0,
      "byteLength": 599952,
      "name": "floatBufferViews",
      "target": 34963
    },
    {
      "buffer": 0,
      "byteLength": 306904,
      "byteOffset": 599952,
      "byteStride": 8,
      "name": "floatBufferViews",
      "target": 34962
    },
    {
      "buffer": 0,
      "byteLength": 920712,
      "byteOffset": 906856,
      "byteStride": 12,
      "name": "floatBufferViews",
      "target": 34962
    },
    {
      "buffer": 0,
      "byteLength": 613808,
      "byteOffset": 1827568,
      "byteStride": 16,
      "name": "floatBufferViews",
      "target": 34962
    }
  ],
  "buffers": [
    {
      "byteLength": 2441376,
      "uri": "scene.bin"
    }
  ],
  "images": [
    {
      "uri": "textures/tex_u1_v1_baseColor.jpeg"
    },
    {
      "uri": "textures/tex_u1_v1_normal.png"
    }
  ],
  "materials": [
    {
      "doubleSided": true,
      "name": "tex_u1_v1",
      "normalTexture": {
        "index": 1
      },
      "pbrMetallicRoughness": {
        "baseColorTexture": {
          "index": 0
        },
        "roughnessFactor": 0.3720377378534333
      }
    }
  ],
  "meshes": [
    {
      "name": "Object_0",
      "primitives": [
        {
          "attributes": {
            "NORMAL": 1,
            "POSITION": 0,
            "TANGENT": 2,
            "TEXCOORD_0": 3
          },
          "indices": 4,
          "material": 0,
          "mode": 4
        }
      ]
    }
  ],
  "nodes": [
    {
      "children": [
        1
      ],
      "matrix": [
        0.7931628227233887,
        0.016198242083191736,
        0.6087941527366638,
        0.0,
        0.608667254447937,
        0.012430410832166849,
        -0.7933282256126404,
        0.0,
        -0.020418085157871246,
        0.9997915029525757,
        2.2199830928050794e-16,
        0.0,
        0.0035789390094578266,
        -3.137700696242923e-05,
        -0.0022582269739359617,
        1.0
      ],
      "name": "Sketchfab_model"
    },
    {
      "children": [
        2
      ],
      "name": "model.obj.cleaner.materialmerger.gles"
    },
    {
      "mesh": 0,
      "name": "Object_2"
    }
  ],
  "samplers": [
    {
      "magFilter": 9729,
      "minFilter": 9987,
      "wrapS": 10497,
      "wrapT": 10497
    }
  ],
  "scene": 0,
  "scenes": [
    {
      "name": "Sketchfab_Scene",
      "nodes": [
        0
      ]
    }
  ],
  "textures": [
    {
      "sampler": 0,
      "source": 0
    },
    {
      "sampler": 0,
      "source": 1
    }
  ]
}
