{
  "accessors": [
    {
      "bufferView": 3,
      "componentType": 5126,
      "count": 935,
      "max": [
        0.24043278396129608,
        0.27461862564086914,
        0.13650692999362946
      ],
      "min": [
        -0.2404327690601349,
        -0.27461856603622437,
        -0.13650694489479065
      ],
      "type": "VEC3"
    },
    {
      "bufferView": 3,
      "byteOffset": 11220,
      "componentType": 5126,
      "count": 935,
      "max": [
        1.0,
        1.0,
        1.0
      ],
      "min": [
        -1.0,
        -1.0,
        -1.0
      ],
      "type": "VEC3"
    },
    {
      "bufferView": 2,
      "componentType": 5126,
      "count": 935,
      "max": [
        0.9517369866371155,
        0.9994969964027405
      ],
      "min": [
        0.014418000355362892,
        0.0008159875869750977
      ],
      "type": "VEC2"
    },
    {
      "bufferView": 1,
      "componentType": 5125,
      "count": 2649,
      "type": "SCALAR"
    },
    {
      "bufferView": 3,
      "byteOffset": 22440,
      "componentType": 5126,
      "count": 858,
      "max": [
        0.7802334427833557,
        0.6886658668518066,
        0.2782030403614044
      ],
      "min": [
        -4.73316504212562e-05,
        -5.977890032227151e-05,
        -0.2779236137866974
      ],
      "type": "VEC3"
    },
    {
      "bufferView": 3,
      "byteOffset": 32736,
      "componentType": 5126,
      "count": 858,
      "max": [
        1.0,
        1.0,
        1.0
      ],
      "min": [
        -1.0,
        -1.0,
        -0.9989116787910461
      ],
      "type": "VEC3"
    },
    {
      "bufferView": 2,
      "byteOffset": 7480,
      "componentType": 5126,
      "count": 858,
      "max": [
        0.969726026058197,
        0.9949110150337219
      ],
      "min": [
        0.006486999802291393,
        0.0048819780349731445
      ],
      "type": "VEC2"
    },
    {
      "bufferView": 1,
      "byteOffset": 10596,
      "componentType": 5125,
      "count": 2625,
      "type": "SCALAR"
    },
    {
      "bufferView": 3,
      "byteOffset": 43032,
      "componentType": 5126,
      "count": 595,
      "max": [
        0.14577338099479675,
        0.6934120655059814,
        0.5365732312202454
      ],
      "min": [
        -0.14577336609363556,
        7.620000275210259e-08,
        -6.135579155852611e-08
      ],
      "type": "VEC3"
    },
    {
      "bufferView": 3,
      "byteOffset": 50172,
      "componentType": 5126,
      "count": 595,
      "max": [
        1.0,
        1.0,
        1.0
      ],
      "min": [
        -1.0,
        -1.0,
        -1.0
      ],
      "type": "VEC3"
    },
    {
      "bufferView": 2,
      "byteOffset": 14344,
      "componentType": 5126,
      "count": 595,
      "max": [
        0.9647089838981628,
        0.9916039705276489
      ],
      "min": [
        0.0050760000012815,
        0.0048909783363342285
      ],
      "type": "VEC2"
    },
    {
      "bufferView": 1,
      "byteOffset": 21096,
      "componentType": 5125,
      "count": 1752,
      "type": "SCALAR"
    },
    {
      "bufferView": 3,
      "byteOffset": 57312,
      "componentType": 5126,
      "count": 1053,
      "max": [
        0.2675221264362335,
        0.593140721321106,
        0.14016175270080566
      ],
      "min": [
        -0.19049999117851257,
        0.0,
        -0.14016175270080566
      ],
      "type": "VEC3"
    },
    {
      "bufferView": 3,
      "byteOffset": 69948,
      "componentType": 5126,
      "count": 1053,
      "max": [
        1.0,
        1.0,
        1.0
      ],
      "min": [
        -1.0,
        -1.0,
        -1.0
      ],
      "type": "VEC3"
    },
    {
      "bufferView": 2,
      "byteOffset": 19104,
      "componentType": 5126,
      "count": 1053,
      "max": [
        0.9964280128479004,
        0.9942489862442017
      ],
      "min": [
        -16.35051727294922,
        -3.9815540313720703
      ],
      "type": "VEC2"
    },
    {
      "bufferView": 1,
      "byteOffset": 28104,
      "componentType": 5125,
      "count": 3900,
      "type": "SCALAR"
    },
    {
      "bufferView": 3,
      "byteOffset": 82584,
      "componentType": 5126,
      "count": 97,
      "max": [
        0.6363831758499146,
        0.7455419301986694,
        -2.4693000316619873
      ],
      "min": [
        0.4716258645057678,
        0.3667668104171753,
        -2.6340572834014893
      ],
      "type": "VEC3"
    },
    {
      "bufferView": 3,
      "byteOffset": 83748,
      "componentType": 5126,
      "count": 97,
      "max": [
        1.0,
        1.0,
        1.0
      ],
      "min": [
        -1.0,
        -1.0,
        -1.0
      ],
      "type": "VEC3"
    },
    {
      "bufferView": 2,
      "byteOffset": 27528,
      "componentType": 5126,
      "count": 97,
      "max": [
        0.6660929918289185,
        0.09005701541900635
      ],
      "min": [
        0.6450290083885193,
        0.0693889856338501
      ],
      "type": "VEC2"
    },
    {
      "bufferView": 1,
      "byteOffset": 43704,
      "componentType": 5125,
      "count": 360,
      "type": "SCALAR"
    },
    {
      "bufferView": 3,
      "byteOffset": 84912,
      "componentType": 5126,
      "count": 1120,
      "max": [
        0.7802334427833557,
        0.8062101602554321,
        0.2782030403614044
      ],
      "min": [
        -4.73316504212562e-05,
        -5.977890032227151e-05,
        -0.2779236137866974
      ],
      "type": "VEC3"
    },
    {
      "bufferView": 3,
      "byteOffset": 98352,
      "componentType": 5126,
      "count": 1120,
      "max": [
        1.0,
        1.0,
        1.0
      ],
      "min": [
        -1.0,
        -1.0,
        -1.0
      ],
      "type": "VEC3"
    },
    {
      "bufferView": 2,
      "byteOffset": 28304,
      "componentType": 5126,
      "count": 1120,
      "max": [
        0.9929839968681335,
        0.9949110150337219
      ],
      "min": [
        0.006486999802291393,
        0.0048819780349731445
      ],
      "type": "VEC2"
    },
    {
      "bufferView": 1,
      "byteOffset": 45144,
      "componentType": 5125,
      "count": 3339,
      "type": "SCALAR"
    },
    {
      "bufferView": 3,
      "byteOffset": 111792,
      "componentType": 5126,
      "count": 1060,
      "max": [
        0.7802332639694214,
        0.8062101602554321,
        0.2782030403614044
      ],
      "min": [
        -4.73316504212562e-05,
        -5.97217476752121e-05,
        -0.277923583984375
      ],
      "type": "VEC3"
    },
    {
      "bufferView": 3,
      "byteOffset": 124512,
      "componentType": 5126,
      "count": 1060,
      "max": [
        1.0,
        1.0,
        1.0
      ],
      "min": [
        -1.0,
        -0.9846264123916626,
        -1.0
      ],
      "type": "VEC3"
    },
    {
      "bufferView": 2,
      "byteOffset": 37264,
      "componentType": 5126,
      "count": 1060,
      "max": [
        0.9930700063705444,
        0.9902409911155701
      ],
      "min": [
        0.008992999792098999,
        0.01385200023651123
      ],
      "type": "VEC2"
    },
    {
      "bufferView": 1,
      "byteOffset": 58500,
      "componentType": 5125,
      "count": 3315,
      "type": "SCALAR"
    },
    {
      "bufferView": 3,
      "byteOffset": 137232,
      "componentType": 5126,
      "count": 1080,
      "max": [
        0.26559901237487793,
        0.45483800768852234,
        0.12038541585206985
      ],
      "min": [
        -0.003805027808994055,
        -0.32891225814819336,
        -0.12038541585206985
      ],
      "type": "VEC3"
    },
    {
      "bufferView": 3,
      "byteOffset": 150192,
      "componentType": 5126,
      "count": 1080,
      "max": [
        1.0,
        0.9999992251396179,
        1.0
      ],
      "min": [
        -1.0,
        -0.9999990463256836,
        -1.0
      ],
      "type": "VEC3"
    },
    {
      "bufferView": 2,
      "byteOffset": 45744,
      "componentType": 5126,
      "count": 1080,
      "max": [
        0.9966030120849609,
        0.9725450277328491
      ],
      "min": [
        0.005512000061571598,
        0.008237004280090332
      ],
      "type": "VEC2"
    },
    {
      "bufferView": 1,
      "byteOffset": 71760,
      "componentType": 5125,
      "count": 3501,
      "type": "SCALAR"
    },
    {
      "bufferView": 5,
      "componentType": 5126,
      "count": 2,
      "max": [
        1.0,
        0.0,
        0.0,
        0.0,
        0.0,
        1.0,
        1.0,
        0.0,
        0.0,
        0.0,
        1.0,
        0.0,
        0.0,
        0.13970443606376648,
        0.5666393637657166,
        1.0
      ],
      "min": [
        1.0,
        0.0,
        0.0,
        0.0,
        0.0,
        0.0,
        0.0,
        0.0,
        0.0,
        -1.0,
        0.0,
        0.0,
        -2.438400088067283e-06,
        0.0,
        0.0,
        1.0
      ],
      "type": "MAT4"
    },
    {
      "bufferView": 0,
      "componentType": 5123,
      "count": 97,
      "type": "VEC4"
    },
    {
      "bufferView": 4,
      "componentType": 5126,
      "count": 97,
      "max": [
        1.0,
        0.0,
        0.0,
        0.0
      ],
      "min": [
        1.0,
        0.0,
        0.0,
        0.0
      ],
      "type": "VEC4"
    }
  ],
  "asset": {
    "extras": {
      "author": "Ninja Cameraman (https://sketchfab.com/bruhdatrippy)",
      "license": "CC-BY-4.0 (http://creativecommons.org/licenses/by/4.0/)",
      "source": "https://sketchfab.com/3d-models/toilet-bases-9a33fecbd62e4614aa2054c54508c427",
      "title": "Toilet Bases"
    },
    "generator": "Sketchfab-15.55.0",
    "version": "2.0"
  },
  "bufferViews": [
    {
      "buffer": 0,
      "byteLength": 776,
      "byteStride": 8,
      "name": "shortBufferViews",
      "target": 34962
    },
    {
      "buffer": 0,
      "byteLength": 85764,
      "byteOffset": 776,
      "name": "floatBufferViews",
      "target": 34963
    },
    {
      "buffer": 0,
      "byteLength": 54384,
      "byteOffset": 86540,
      "byteStride": 8,
      "name": "floatBufferViews",
      "target": 34962
    },
    {
      "buffer": 0,
      "byteLength": 163152,
      "byteOffset": 140924,
      "byteStride": 12,
      "name": "floatBufferViews",
      "target": 34962
    },
    {
      "buffer": 0,
      "byteLength": 1552,
      "byteOffset": 304076,
      "byteStride": 16,
      "name": "floatBufferViews",
      "target": 34962
    },
    {
      "buffer": 0,
      "byteLength": 128,
      "byteOffset": 305628,
      "name": "floatBufferViews"
    }
  ],
  "buffers": [
    {
      "byteLength": 305756,
      "uri": "scene.bin"
    }
  ],
  "images": [
    {
      "uri": "textures/prison_toilet01_baseColor.png"
    },
    {
      "uri": "textures/toilet_baseColor.png"
    },
    {
      "uri": "textures/toilet_001_baseColor.png"
    },
    {
      "uri": "textures/toilet_002_baseColor.png"
    },
    {
      "uri": "textures/toilet_d_baseColor.png"
    },
    {
      "uri": "textures/Urinal01_baseColor.png"
    }
  ],
  "materials": [
    {
      "doubleSided": true,
      "name": "prison_toilet01",
      "pbrMetallicRoughness": {
        "baseColorTexture": {
          "index": 0
        },
        "roughnessFactor": 0.44685545708329777
      }
    },
    {
      "doubleSided": true,
      "name": "toilet",
      "pbrMetallicRoughness": {
        "baseColorTexture": {
          "index": 1
        },
        "roughnessFactor": 0.48342699711084836
      }
    },
    {
      "doubleSided": true,
      "name": "toilet_001",
      "pbrMetallicRoughness": {
        "baseColorTexture": {
          "index": 2
        },
        "metallicFactor": 0.582677,
        "roughnessFactor": 0.26399775694554506
      }
    },
    {
      "doubleSided": true,
      "name": "toilet_002",
      "pbrMetallicRoughness": {
        "baseColorTexture": {
          "index": 3
        },
        "metallicFactor": 0.622047,
        "roughnessFactor": 0.30666455364435397
      }
    },
    {
      "doubleSided": true,
      "name": "toilet_d",
      "pbrMetallicRoughness": {
        "baseColorTexture": {
          "index": 4
        },
        "roughnessFactor": 0.7908595530957808
      }
    },
    {
      "doubleSided": true,
      "name": "Urinal01",
      "pbrMetallicRoughness": {
        "baseColorTexture": {
          "index": 5
        },
        "roughnessFactor": 0.434664943740781
      }
    }
  ],
  "meshes": [
    {
      "name": "Object_0",
      "primitives": [
        {
          "attributes": {
            "NORMAL": 1,
            "POSITION": 0,
            "TEXCOORD_0": 2
          },
          "indices": 3,
          "material": 0,
          "mode": 4
        }
      ]
    },
    {
      "name": "Object_1",
      "primitives": [
        {
          "attributes": {
            "NORMAL": 5,
            "POSITION": 4,
            "TEXCOORD_0": 6
          },
          "indices": 7,
          "material": 1,
          "mode": 4
        }
      ]
    },
    {
      "name": "Object_2",
      "primitives": [
        {
          "attributes": {
            "NORMAL": 9,
            "POSITION": 8,
            "TEXCOORD_0": 10
          },
          "indices": 11,
          "material": 2,
          "mode": 4
        }
      ]
    },
    {
      "name": "Object_3",
      "primitives": [
        {
          "attributes": {
            "NORMAL": 13,
            "POSITION": 12,
            "TEXCOORD_0": 14
          },
          "indices": 15,
          "material": 3,
          "mode": 4
        }
      ]
    },
    {
      "name": "Object_4",
      "primitives": [
        {
          "attributes": {
            "JOINTS_0": 33,
            "NORMAL": 17,
            "POSITION": 16,
            "TEXCOORD_0": 18,
            "WEIGHTS_0": 34
          },
          "indices": 19,
          "material": 3,
          "mode": 4
        }
      ]
    },
    {
      "name": "Object_5",
      "primitives": [
        {
          "attributes": {
            "NORMAL": 21,
            "POSITION": 20,
            "TEXCOORD_0": 22
          },
          "indices": 23,
          "material": 1,
          "mode": 4
        }
      ]
    },
    {
      "name": "Object_6",
      "primitives": [
        {
          "attributes": {
            "NORMAL": 25,
            "POSITION": 24,
            "TEXCOORD_0": 26
          },
          "indices": 27,
          "material": 4,
          "mode": 4
        }
      ]
    },
    {
      "name": "Object_7",
      "primitives": [
        {
          "attributes": {
            "NORMAL": 29,
            "POSITION": 28,
            "TEXCOORD_0": 30
          },
          "indices": 31,
          "material": 5,
          "mode": 4
        }
      ]
    }
  ],
  "nodes": [
    {
      "children": [
        1
      ],
      "matrix": [
        1.0,
        0.0,
        0.0,
        0.0,
        0.0,
        2.220446049250313e-16,
        -1.0,
        0.0,
        0.0,
        1.0,
        2.220446049250313e-16,
        0.0,
        0.0,
        0.0,
        0.0,
        1.0
      ],
      "name": "Sketchfab_model"
    },
    {
      "children": [
        2
      ],
      "name": "root"
    },
    {
      "children": [
        3,
        5,
        7,
        9,
        11,
        17,
        19,
        21
      ],
      "matrix": [
        1.0,
        0.0,
        0.0,
        0.0,
        0.0,
        2.220446049250313e-16,
        1.0,
        0.0,
        0.0,
        -1.0,
        2.220446049250313e-16,
        0.0,
        0.0,
        0.0,
        0.0,
        1.0
      ],
      "name": "GLTF_SceneRootNode"
    },
    {
      "children": [
        4
      ],
      "matrix": [
        1.407920479774475,
        0.0,
        0.0,
        0.0,
        0.0,
        1.407920479774475,
        0.0,
        0.0,
        0.0,
        0.0,
        1.407920479774475,
        0.0,
        0.6826090216636658,
        0.32535016536712646,
        -3.0508525371551514,
        1.0
      ],
      "name": "prison_toilet01_reference.smd_2"
    },
    {
      "mesh": 0,
      "name": "Object_4"
    },
    {
      "children": [
        6
      ],
      "matrix": [
        1.0,
        0.0,
        0.0,
        0.0,
        0.0,
        1.0,
        0.0,
        0.0,
        0.0,
        0.0,
        1.0,
        0.0,
        0.0,
        0.0,
        -0.6479572057723999,
        1.0
      ],
      "name": "toilet.smd_3"
    },
    {
      "mesh": 1,
      "name": "Object_6"
    },
    {
      "children": [
        8
      ],
      "matrix": [
        -0.007610401217272855,
        0.0,
        -0.9999710404773292,
        0.0,
        0.0,
        1.0,
        0.0,
        0.0,
        0.9999710404773292,
        0.0,
        -0.007610401217272855,
        0.0,
        0.4135763645172119,
        -0.02743816375732422,
        -1.9716103076934814,
        1.0
      ],
      "name": "toilet_001b.smd_4"
    },
    {
      "mesh": 2,
      "name": "Object_8"
    },
    {
      "children": [
        10
      ],
      "matrix": [
        1.0,
        0.0,
        0.0,
        0.0,
        0.0,
        1.0,
        0.0,
        0.0,
        0.0,
        0.0,
        1.0,
        0.0,
        0.5774831771850586,
        0.0,
        -1.3465182781219482,
        1.0
      ],
      "name": "toilet_002.smd_5"
    },
    {
      "mesh": 3,
      "name": "Object_10"
    },
    {
      "children": [
        12
      ],
      "name": "toilet_002_pull_ARM_8"
    },
    {
      "children": [
        13,
        15,
        14
      ],
      "name": "GLTF_created_0"
    },
    {
      "children": [
        16
      ],
      "name": "GLTF_created_0_rootJoint"
    },
    {
      "name": "toilet_002_pull.smd_7"
    },
    {
      "mesh": 4,
      "name": "Object_15",
      "skin": 0
    },
    {
      "name": "Object001_6",
      "rotation": [
        -0.7071068286895752,
        0.0,
        0.0,
        0.7071068286895752
      ],
      "translation": [
        2.438400088067283e-06,
        -0.5666393637657166,
        0.13970443606376648
      ]
    },
    {
      "children": [
        18
      ],
      "matrix": [
        1.0,
        0.0,
        0.0,
        0.0,
        0.0,
        1.0,
        0.0,
        0.0,
        0.0,
        0.0,
        1.0,
        0.0,
        0.0,
        0.0,
        0.4866487979888916,
        1.0
      ],
      "name": "toilet_b.smd_9"
    },
    {
      "mesh": 5,
      "name": "Object_18"
    },
    {
      "children": [
        20
      ],
      "matrix": [
        1.0,
        0.0,
        0.0,
        0.0,
        0.0,
        1.0,
        0.0,
        0.0,
        0.0,
        0.0,
        1.0,
        0.0,
        0.0,
        0.0,
        1.074223279953003,
        1.0
      ],
      "name": "toilet_d.smd_10"
    },
    {
      "mesh": 6,
      "name": "Object_20"
    },
    {
      "children": [
        22
      ],
      "matrix": [
        1.0,
        0.0,
        0.0,
        0.0,
        0.0,
        1.0,
        0.0,
        0.0,
        0.0,
        0.0,
        1.0,
        0.0,
        0.0,
        0.17625242471694946,
        -0.05649099126458168,
        1.0
      ],
      "name": "Urinal01_REF.smd_11"
    },
    {
      "mesh": 7,
      "name": "Object_22"
    }
  ],
  "samplers": [
    {
      "magFilter": 9729,
      "minFilter": 9987,
      "wrapS": 10497,
      "wrapT": 10497
    }
  ],
  "scene": 0,
  "scenes": [
    {
      "name": "Sketchfab_Scene",
      "nodes": [
        0
      ]
    }
  ],
  "skins": [
    {
      "inverseBindMatrices": 32,
      "joints": [
        13,
        16
      ],
      "skeleton": 13
    }
  ],
  "textures": [
    {
      "sampler": 0,
      "source": 0
    },
    {
      "sampler": 0,
      "source": 1
    },
    {
      "sampler": 0,
      "source": 2
    },
    {
      "sampler": 0,
      "source": 3
    },
    {
      "sampler": 0,
      "source": 4
    },
    {
      "sampler": 0,
      "source": 5
    }
  ]
}
